<?xml version="1.0" standalone="no"?>
<!DOCTYPE svg PUBLIC "-//W3C//DTD SVG 20010904//EN"
 "http://www.w3.org/TR/2001/REC-SVG-20010904/DTD/svg10.dtd">
<svg version="1.0" xmlns="http://www.w3.org/2000/svg"
 width="260.000000pt" height="260.000000pt" viewBox="0 0 260.000000 260.000000"
 preserveAspectRatio="xMidYMid meet">
<metadata>
Created by potrace 1.11, written by Peter Selinger 2001-2013
</metadata>
<g transform="translate(0.000000,260.000000) scale(0.100000,-0.100000)"
fill="#000000" stroke="none">
<path d="M791 2563 c12 -15 12 -16 -3 -11 -10 4 -19 1 -22 -9 -6 -14 -8 -14
-21 3 -15 19 -15 19 -8 0 5 -16 3 -18 -11 -13 -14 5 -15 3 -7 -10 7 -14 2 -22
-21 -40 -17 -12 -36 -20 -41 -16 -6 3 -7 1 -3 -5 4 -6 13 -9 21 -5 11 4 13 1
9 -11 -3 -9 -10 -14 -14 -11 -5 3 -12 0 -16 -6 -4 -7 -3 -9 3 -6 14 9 37 -19
28 -33 -3 -5 1 -13 9 -16 9 -3 13 -11 9 -18 -3 -6 -2 -8 2 -3 5 4 18 -1 29
-10 17 -15 19 -15 8 -1 -9 11 -10 18 -2 23 5 3 10 0 10 -7 0 -8 4 -7 11 4 6
11 16 15 26 11 12 -5 15 -2 10 10 -4 11 -2 14 7 11 8 -3 17 0 21 5 3 6 11 8
17 5 7 -4 8 -2 4 5 -6 9 -12 9 -24 -1 -15 -12 -16 -11 -3 5 8 10 19 16 26 13
6 -2 12 2 12 10 0 7 -5 11 -10 7 -5 -3 -4 4 2 16 7 12 9 27 5 34 -5 7 -2 7 9
-2 15 -12 17 -12 11 3 -3 9 -10 16 -15 16 -5 0 -9 7 -9 16 0 11 -6 14 -22 8
-21 -6 -22 -5 -8 11 9 11 10 16 3 11 -7 -4 -13 -3 -13 2 0 6 -7 13 -16 16 -15
6 -15 4 -3 -11z"/>
<path d="M1021 2569 c7 -4 18 -5 24 -1 5 3 4 -2 -4 -11 -15 -18 -26 -23 -16
-7 3 6 1 10 -4 10 -6 0 -11 -4 -11 -8 0 -5 -10 -14 -22 -21 -23 -11 -23 -11 2
-6 19 4 17 1 -8 -10 -30 -14 -32 -18 -20 -32 11 -14 11 -16 -1 -8 -11 6 -13 4
-8 -9 5 -11 3 -15 -5 -10 -7 5 -9 -1 -4 -19 3 -14 2 -29 -4 -32 -6 -3 -7 1 -4
9 3 9 1 16 -6 16 -6 0 -9 -4 -5 -9 3 -5 1 -12 -5 -16 -6 -4 4 -24 24 -49 27
-33 41 -42 63 -40 43 2 45 3 37 17 -6 8 -3 8 9 -1 14 -12 16 -11 12 8 -3 18
-2 20 10 10 12 -10 15 -9 15 4 0 10 5 14 10 11 9 -6 14 7 11 27 0 4 6 5 13 2
11 -4 13 0 9 18 -4 19 -3 20 7 8 10 -12 11 -11 7 8 -4 18 -2 22 9 18 8 -3 12
-2 9 3 -3 5 -1 12 5 16 6 4 7 12 3 18 -4 7 -6 22 -4 35 1 12 -2 22 -8 22 -6 0
-8 -8 -4 -17 5 -15 3 -14 -10 2 -9 11 -17 27 -17 37 0 13 -11 16 -61 16 -34
-1 -55 -4 -48 -9z m-71 -191 c0 -6 -6 -5 -15 2 -8 7 -15 14 -15 16 0 2 7 1 15
-2 8 -4 15 -11 15 -16z m45 -40 c5 4 5 1 1 -6 -6 -10 -11 -10 -22 -1 -8 6 -14
14 -14 16 0 3 6 0 13 -6 8 -6 18 -7 22 -3z m35 -2 c0 -3 -4 -8 -10 -11 -5 -3
-10 -1 -10 4 0 6 5 11 10 11 6 0 10 -2 10 -4z"/>
<path d="M1140 2559 c0 -5 5 -7 10 -4 6 3 10 8 10 11 0 2 -4 4 -10 4 -5 0 -10
-5 -10 -11z"/>
<path d="M1375 2540 c-3 -5 -3 -16 1 -22 4 -7 -2 -5 -13 5 -20 18 -21 18 -19
0 1 -14 -5 -17 -29 -15 -23 2 -27 1 -15 -7 13 -9 13 -11 -2 -11 -9 0 -19 -6
-21 -12 -4 -9 -6 -9 -6 2 -1 10 -6 7 -17 -8 -8 -12 -20 -19 -26 -16 -7 4 -8 2
-4 -5 6 -9 12 -9 24 1 15 12 16 11 3 -5 -8 -10 -20 -16 -26 -13 -8 3 -12 -5
-10 -24 2 -19 -2 -27 -10 -24 -11 5 -21 -13 -31 -57 -2 -9 6 -21 19 -28 18
-10 19 -11 2 -6 l-20 5 20 -15 c11 -9 21 -21 21 -28 1 -7 2 -16 3 -21 0 -5 8
-3 16 4 12 10 15 9 15 -4 0 -13 4 -15 18 -7 11 6 24 6 33 0 20 -12 32 -11 23
3 -5 8 -2 9 10 5 10 -4 15 -3 11 3 -6 9 8 15 29 11 5 -1 6 6 2 15 -5 14 -4 15
8 5 11 -9 15 -7 19 9 3 11 17 24 31 30 14 5 26 12 26 15 0 4 -4 3 -10 0 -5 -3
-10 -1 -10 4 0 10 14 15 33 12 4 -1 3 7 -2 18 -8 14 -7 22 4 31 23 19 22 53
-2 80 -13 14 -23 28 -23 33 0 4 11 -4 23 -19 17 -20 24 -23 24 -11 0 9 -4 14
-8 11 -4 -2 -12 3 -18 13 -5 10 -20 18 -33 18 -12 0 -23 5 -23 12 0 6 -4 15
-9 20 -5 5 -6 3 -2 -4 4 -8 1 -13 -9 -13 -9 0 -13 5 -10 10 3 6 4 10 1 10 -3
0 -8 -4 -11 -10z m-180 -199 c3 -5 2 -12 -3 -15 -5 -3 -9 1 -9 9 0 17 3 19 12
6z"/>
<path d="M686 2494 c-5 -14 -4 -15 9 -4 17 14 19 20 6 20 -5 0 -12 -7 -15 -16z"/>
<path d="M866 2458 c3 -5 10 -6 15 -3 13 9 11 12 -6 12 -8 0 -12 -4 -9 -9z"/>
<path d="M1676 2405 c18 -14 17 -14 -14 -15 -19 0 -35 -6 -38 -15 -4 -8 -10
-12 -15 -9 -6 3 -16 0 -24 -6 -12 -10 -15 -10 -15 0 0 8 -3 10 -6 7 -4 -4 -1
-14 7 -23 13 -16 12 -17 -8 -12 -16 4 -20 2 -16 -8 3 -10 -2 -14 -18 -14 -19
0 -21 -2 -9 -10 13 -9 7 -14 -12 -11 -4 0 -5 -6 -2 -14 4 -8 -1 -17 -10 -21
-9 -3 -13 -10 -10 -15 3 -5 0 -9 -7 -9 -8 0 -8 -4 1 -15 11 -13 10 -14 -2 -10
-9 4 -18 -1 -22 -10 -3 -9 -2 -13 4 -10 6 3 10 -1 10 -10 0 -9 -4 -14 -8 -11
-5 3 -9 -2 -9 -10 0 -8 6 -13 12 -10 6 2 12 -2 12 -10 0 -7 -4 -11 -9 -8 -4 3
-5 -2 -2 -10 3 -9 10 -13 15 -10 5 3 9 -5 10 -18 0 -22 1 -22 9 -3 6 14 9 15
10 5 0 -8 8 -24 17 -35 13 -16 15 -17 10 -2 -9 25 8 21 21 -5 10 -21 11 -21
11 -4 1 20 1 20 16 0 14 -18 15 -18 8 0 -4 14 -2 17 8 14 8 -3 13 -11 11 -18
-3 -11 0 -11 12 -1 8 7 21 9 28 5 8 -5 8 -1 -2 11 -10 13 -11 16 -2 11 8 -5
19 -1 28 10 9 11 13 13 9 7 -8 -16 0 -16 26 -3 10 6 19 18 19 27 0 13 3 13 15
3 9 -7 18 -10 22 -6 3 3 1 6 -5 6 -7 0 -12 5 -12 11 0 6 6 9 14 6 9 -4 13 0
11 11 -4 25 5 34 20 22 11 -9 13 -5 12 22 -2 28 1 33 20 32 18 0 20 2 11 13
-8 10 -8 17 2 26 10 10 11 9 5 -2 -6 -10 -4 -12 5 -6 11 7 10 10 -1 19 -8 6
-15 24 -16 39 -1 26 0 27 13 10 13 -16 13 -15 3 9 -7 15 -15 25 -19 23 -8 -5
-34 24 -43 49 -7 18 -27 13 -27 -7 0 -7 4 -6 10 3 6 9 10 10 10 3 0 -25 -20
-22 -35 4 -9 15 -14 20 -11 11 4 -12 1 -15 -11 -11 -12 5 -14 3 -8 -8 5 -8 -3
-4 -17 9 -13 12 -28 22 -33 22 -5 0 0 -7 11 -15z"/>
<path d="M660 2400 c0 -5 5 -10 10 -10 6 0 10 5 10 10 0 6 -4 10 -10 10 -5 0
-10 -4 -10 -10z"/>
<path d="M1815 2200 c3 -5 8 -10 11 -10 2 0 4 5 4 10 0 6 -5 10 -11 10 -5 0
-7 -4 -4 -10z"/>
<path d="M2012 2193 c-7 -10 -10 -12 -7 -5 3 6 2 12 -3 12 -5 0 -12 -10 -15
-21 -4 -15 -11 -20 -21 -16 -9 4 -16 2 -16 -3 0 -6 -5 -10 -11 -10 -6 0 -17
-7 -26 -15 -8 -8 -19 -13 -24 -10 -8 6 -12 -7 -6 -21 1 -4 -8 -11 -21 -15 -15
-6 -21 -13 -16 -21 6 -10 4 -10 -8 0 -13 11 -16 10 -14 -5 0 -11 -5 -17 -13
-15 -12 3 -12 1 0 -14 9 -12 9 -15 2 -10 -8 4 -13 2 -13 -4 0 -6 -5 -8 -12 -4
-10 6 -10 5 0 -8 10 -12 10 -17 -1 -27 -8 -6 -18 -7 -22 -3 -5 4 -5 1 -1 -6 4
-7 2 -19 -4 -27 -7 -8 -8 -15 -3 -15 5 0 10 -7 10 -15 0 -8 -4 -12 -9 -9 -13
8 -10 -10 5 -25 10 -11 10 -13 0 -7 -7 4 -13 3 -13 -1 0 -5 6 -15 13 -22 10
-11 10 -13 0 -7 -7 4 -13 2 -13 -3 0 -6 6 -11 13 -11 8 0 7 -4 -3 -10 -13 -8
-12 -10 3 -10 9 0 17 -7 17 -16 0 -9 5 -12 12 -8 8 5 9 2 5 -10 -4 -9 -3 -15
1 -13 4 3 12 -1 19 -8 10 -11 10 -15 0 -19 -7 -3 1 -2 17 1 22 5 27 3 21 -7
-6 -10 -4 -11 6 -4 20 12 38 14 44 4 3 -5 -4 -7 -16 -5 -12 2 -19 1 -15 -2 10
-10 56 -11 50 -1 -3 4 -1 8 5 8 5 0 12 -6 14 -12 3 -8 6 -6 6 5 1 9 6 17 12
17 5 0 7 -6 3 -12 -5 -10 -4 -10 6 -1 9 8 19 9 32 2 10 -5 18 -6 17 -2 -4 22
3 25 16 7 9 -11 13 -13 10 -4 -4 10 5 20 27 29 18 8 36 13 40 12 4 0 5 6 2 14
-5 11 -2 13 10 9 13 -5 15 -2 9 12 -6 17 -5 18 12 4 10 -8 16 -10 13 -5 -10
16 6 36 30 38 11 0 19 5 16 9 -3 4 -12 5 -22 2 -15 -5 -15 -5 1 6 9 6 21 9 26
6 5 -3 8 2 7 12 -1 12 5 16 18 14 18 -3 18 -2 2 13 -17 17 -22 30 -7 21 4 -3
17 2 27 10 19 15 19 15 -1 9 -19 -6 -18 -5 2 14 14 14 20 27 16 39 -6 14 -4
15 9 4 11 -9 18 -10 23 -2 3 5 1 10 -5 10 -7 0 -5 6 4 15 16 17 11 49 -7 38
-5 -3 -7 -1 -4 5 9 14 -3 43 -14 36 -5 -3 -9 -2 -8 3 4 24 -3 43 -17 43 -9 0
-12 5 -8 12 5 8 2 9 -9 5 -9 -3 -19 -1 -23 5 -4 7 -3 8 4 4 7 -4 12 -2 12 5 0
6 -8 9 -20 6 -11 -3 -18 -1 -15 3 3 5 1 11 -5 15 -5 3 -10 1 -10 -6 0 -8 -4
-9 -13 0 -10 8 -17 7 -27 -2 -10 -10 -11 -9 -5 3 8 13 7 13 -8 1 -14 -11 -17
-11 -17 0 0 11 -2 11 -10 -1 -9 -13 -10 -13 -10 0 0 13 -1 13 -10 0 -9 -13
-10 -13 -10 0 0 13 -1 13 -10 0 -9 -13 -10 -13 -10 0 0 12 -2 13 -9 1 -6 -9
-10 -9 -12 -2 -3 7 -9 4 -17 -6z m293 -153 c-3 -5 -12 -10 -18 -10 -7 0 -6 4
3 10 19 12 23 12 15 0z m-215 -264 c0 -2 -7 -7 -16 -10 -8 -3 -12 -2 -9 4 6
10 25 14 25 6z"/>
<path d="M896 2172 c-14 -13 -20 -14 -23 -4 -4 10 -9 8 -20 -5 -8 -10 -12 -13
-9 -7 3 7 -1 15 -10 18 -8 3 -12 2 -9 -4 3 -6 -1 -10 -10 -10 -10 0 -13 5 -9
12 4 7 3 8 -5 4 -9 -6 -9 -11 1 -24 12 -14 10 -14 -9 -3 -14 7 -23 8 -23 2 0
-5 -9 -8 -21 -6 -18 4 -19 2 -7 -12 8 -10 8 -14 1 -10 -6 4 -26 -6 -44 -23
-24 -21 -35 -26 -41 -17 -5 8 -8 4 -8 -12 0 -17 -4 -22 -16 -17 -14 6 -15 4
-4 -9 7 -9 9 -15 4 -14 -21 4 -26 -2 -14 -16 11 -13 10 -14 -5 -9 -12 5 -16 4
-12 -3 4 -6 1 -14 -5 -16 -10 -4 -10 -6 -1 -6 14 -1 6 -31 -9 -31 -5 0 -6 5
-3 10 3 6 1 10 -4 10 -15 0 -14 -13 2 -29 10 -11 9 -12 -1 -7 -10 6 -12 -16
-11 -108 1 -64 6 -116 11 -116 4 0 8 -5 8 -11 0 -5 -4 -8 -8 -5 -5 3 -9 -1 -9
-8 0 -8 6 -12 13 -9 6 2 15 -1 20 -8 4 -8 3 -10 -4 -5 -7 4 -12 2 -12 -3 0 -6
4 -11 9 -11 5 0 12 -7 15 -16 5 -14 4 -15 -9 -4 -23 19 -18 3 8 -21 19 -19 19
-21 3 -15 -15 5 -17 4 -8 -7 7 -8 8 -18 4 -23 -4 -5 -3 -6 2 -2 5 4 15 0 22
-10 19 -24 17 -40 -2 -16 -15 18 -15 18 -5 -2 6 -12 7 -25 3 -29 -4 -5 -2 -5
4 -2 7 4 15 0 18 -9 8 -22 8 -26 -4 -19 -6 3 -7 -1 -3 -10 5 -13 7 -14 14 -3
6 9 9 7 9 -9 0 -17 4 -21 18 -16 14 5 14 3 -3 -11 -20 -17 -20 -18 0 -11 11 3
16 3 13 -1 -4 -4 -3 -16 3 -27 8 -14 8 -18 0 -13 -7 5 -9 1 -5 -8 3 -9 10 -14
14 -11 5 3 11 1 14 -4 4 -5 -2 -12 -11 -14 -17 -4 -17 -5 0 -6 9 0 17 -7 17
-13 0 -9 4 -8 10 2 6 9 10 10 10 3 0 -6 -4 -15 -10 -18 -13 -8 12 -35 25 -27
6 3 5 -1 -2 -9 -10 -12 -8 -21 7 -47 11 -18 27 -32 36 -32 10 0 13 -6 10 -18
-4 -11 2 -23 14 -32 11 -8 20 -22 20 -32 0 -10 5 -18 10 -18 6 0 10 -7 10 -15
0 -8 5 -15 10 -15 6 0 10 -7 10 -15 0 -8 6 -15 13 -15 7 0 18 -9 25 -21 8 -12
9 -18 3 -15 -7 4 -8 1 -5 -8 3 -9 11 -14 17 -13 7 1 11 -4 10 -10 -2 -7 2 -13
8 -13 5 0 7 -6 3 -12 -5 -8 0 -7 11 2 17 14 18 13 13 -7 -4 -13 -1 -26 4 -30
7 -4 8 -1 3 7 -5 9 -4 11 3 6 7 -4 12 -17 12 -28 0 -12 3 -18 7 -15 11 12 73
-64 73 -90 0 -13 4 -22 9 -19 5 3 12 -1 15 -10 3 -8 2 -12 -3 -9 -5 3 -12 1
-16 -5 -3 -5 3 -10 14 -10 24 0 27 -10 8 -29 -8 -10 -8 -12 0 -7 8 4 11 -1 10
-14 -1 -11 -6 -20 -11 -20 -5 0 -6 -3 -3 -6 4 -4 14 -1 23 7 16 13 16 12 4
-11 -7 -14 -18 -29 -24 -33 -7 -6 -4 -7 7 -3 21 7 22 -7 2 -24 -14 -12 -11
-35 4 -26 4 3 8 -1 8 -8 0 -8 -7 -12 -15 -8 -11 4 -13 2 -6 -9 4 -8 9 -24 10
-36 1 -19 -1 -21 -14 -10 -13 10 -14 9 -4 -10 9 -17 9 -22 -3 -27 -8 -3 -15
-9 -14 -13 4 -26 -2 -43 -13 -37 -10 5 -10 4 -1 -6 10 -11 9 -16 -5 -27 -16
-12 -15 -13 3 -7 17 5 16 3 -5 -16 -14 -12 -20 -19 -13 -16 20 10 11 -34 -12
-58 -12 -13 -19 -29 -16 -37 3 -11 1 -11 -14 1 -11 9 -16 10 -11 2 9 -16 -2
-54 -15 -46 -5 3 -6 10 -3 16 4 6 2 8 -4 5 -5 -4 -9 -18 -7 -32 2 -22 0 -23
-13 -13 -10 8 -13 8 -9 2 13 -22 -17 -34 -46 -19 -15 8 -25 10 -22 5 4 -6 0
-10 -8 -10 -16 0 -47 31 -47 48 0 7 -5 12 -11 12 -6 0 -9 9 -6 20 3 12 0 20
-7 20 -6 0 -12 9 -13 20 -1 11 2 18 6 16 4 -3 8 1 8 9 0 8 -4 12 -8 10 -3 -3
-9 5 -12 17 -4 12 -1 25 5 29 9 6 9 11 -1 22 -8 10 -9 17 -1 22 5 3 10 11 10
16 0 6 -6 7 -12 3 -10 -6 -10 -5 -1 8 7 8 9 19 5 23 -4 5 -2 5 4 2 7 -4 15 0
18 9 3 8 2 12 -4 9 -6 -3 -7 1 -4 10 4 9 13 14 22 10 12 -4 12 -3 3 9 -9 11
-8 15 5 20 9 4 14 9 10 13 -3 3 1 18 10 32 9 14 13 23 9 19 -4 -4 -14 0 -22
10 -12 16 -13 16 -6 -2 3 -11 2 -17 -3 -14 -5 3 -17 3 -26 -1 -16 -6 -16 -7 3
-20 19 -11 21 -11 16 4 -4 9 -3 13 2 10 6 -3 9 -14 8 -25 -1 -18 -2 -18 -21
-2 -18 16 -19 16 -13 0 4 -12 2 -15 -8 -11 -8 3 -12 10 -8 16 3 6 1 7 -5 3 -6
-3 -9 -15 -7 -26 3 -18 -5 -24 -26 -22 -4 1 -5 -7 -2 -18 3 -11 10 -17 16 -13
6 3 7 1 3 -6 -6 -9 -11 -9 -21 -1 -9 8 -12 5 -11 -12 1 -13 -5 -29 -14 -36
-13 -12 -13 -13 3 -8 9 3 17 1 17 -4 0 -9 -13 -14 -31 -12 -3 1 -4 -10 -1 -23
2 -14 9 -22 15 -18 6 3 7 1 3 -5 -4 -7 -15 -12 -24 -13 -12 0 -11 -3 6 -9 12
-5 22 -12 22 -14 0 -3 -6 -3 -14 0 -8 3 -17 0 -22 -7 -4 -8 -3 -10 4 -5 8 5
12 -1 12 -18 0 -13 6 -27 13 -30 6 -3 2 -3 -10 0 -13 3 -23 1 -23 -5 0 -6 3
-10 8 -10 18 3 32 -2 32 -12 0 -5 -4 -8 -8 -5 -4 2 -8 -4 -8 -14 0 -11 2 -17
4 -15 5 5 32 -21 32 -30 0 -4 -8 -4 -17 -1 -15 6 -15 4 2 -14 20 -22 30 -27
19 -8 -4 7 -3 8 4 4 7 -4 12 -15 12 -26 0 -10 7 -21 16 -24 8 -3 12 -11 8 -17
-4 -7 2 -6 17 2 23 12 23 11 9 -6 -14 -17 -13 -18 7 -13 12 3 22 3 21 -1 -3
-29 4 -32 92 -30 49 2 84 6 78 10 -7 4 -16 5 -20 3 -4 -3 -8 0 -8 6 0 6 11 8
24 6 19 -3 23 -1 19 11 -5 13 -1 15 23 9 21 -5 25 -4 14 4 -13 9 -13 11 0 19
8 5 19 7 25 3 5 -3 3 3 -5 14 -8 10 -10 16 -6 12 5 -5 16 1 23 12 8 11 19 18
24 15 5 -4 9 0 9 8 0 8 7 17 15 21 9 3 12 12 8 22 -5 13 -2 16 10 11 11 -4 15
-1 12 13 -2 10 3 21 11 24 8 3 14 12 14 20 0 8 6 17 13 19 10 4 10 6 0 6 -7 1
-13 6 -13 12 0 5 3 8 8 6 4 -3 12 1 19 8 10 11 10 15 0 19 -7 4 -2 4 10 2 22
-4 22 -3 5 23 -16 25 -16 26 3 11 10 -8 16 -10 12 -4 -4 7 0 17 8 24 7 6 11
19 8 27 -5 12 -3 14 7 8 8 -5 11 -4 6 3 -4 6 -14 9 -24 6 -9 -3 -4 2 11 11 15
9 25 20 21 26 -3 5 0 17 7 25 10 12 9 13 -6 8 -15 -6 -16 -4 -6 14 7 12 14 22
17 22 3 0 2 -6 -2 -12 -5 -10 -3 -10 7 0 12 11 12 14 -1 22 -8 5 -19 6 -25 2
-5 -3 -4 2 4 11 16 20 25 23 15 5 -5 -10 -3 -10 7 0 12 11 12 14 -1 22 -13 8
-8 14 11 12 3 -1 5 15 4 34 -1 19 2 34 8 34 5 0 5 6 -2 13 -6 8 -7 18 -3 22 4
5 2 5 -5 1 -7 -4 -10 -13 -6 -21 3 -8 0 -15 -7 -15 -6 0 -8 5 -5 10 3 6 0 10
-7 10 -10 0 -10 2 0 9 8 4 13 11 13 15 -1 3 -1 7 0 9 6 20 5 36 -2 31 -5 -3
-7 -10 -4 -15 10 -15 -2 -10 -16 8 -8 10 -9 14 -2 10 8 -5 11 2 11 23 -1 22
-5 29 -15 26 -8 -3 -11 -1 -8 4 3 5 8 18 10 29 3 14 -1 18 -15 14 -15 -4 -18
-1 -13 16 3 13 1 21 -7 21 -7 0 -9 9 -6 22 3 13 3 18 0 11 -4 -8 -11 -6 -25 8
-20 20 -26 34 -10 24 5 -3 13 -1 16 5 4 6 3 10 -2 9 -20 -3 -46 2 -40 8 4 3 1
13 -6 21 -10 13 -9 14 2 7 9 -5 7 2 -5 17 -10 14 -22 24 -26 21 -5 -2 -8 1 -8
7 0 6 -4 9 -9 6 -5 -4 -7 2 -4 13 3 10 0 22 -6 25 -7 5 -9 0 -5 -11 5 -17 5
-17 -6 0 -6 9 -8 22 -5 27 4 6 -1 7 -12 3 -16 -6 -16 -5 -4 11 12 14 12 17 1
14 -8 -2 -15 2 -15 7 -4 24 -18 45 -32 45 -8 0 -11 5 -8 10 3 5 1 10 -4 10 -6
0 -11 10 -11 23 0 18 -2 19 -10 7 -8 -12 -10 -10 -10 8 0 16 -4 21 -12 16 -10
-6 -10 -4 0 8 10 13 8 19 -17 39 -21 16 -26 26 -18 31 9 6 9 8 0 8 -7 0 -13 5
-13 11 0 7 -8 18 -17 26 -10 8 -13 12 -6 9 6 -4 15 -1 19 5 4 8 3 9 -4 5 -7
-4 -12 -2 -12 4 0 6 -3 9 -8 6 -4 -2 -15 9 -24 25 -9 16 -13 31 -8 34 11 7 1
35 -12 35 -6 0 -4 -8 3 -17 13 -16 12 -17 -3 -5 -10 8 -14 20 -11 29 5 12 3
14 -8 8 -12 -8 -12 -6 0 8 11 14 11 17 0 17 -11 0 -11 3 1 11 12 9 10 10 -8 6
-23 -6 -24 -5 -5 15 18 21 18 21 -7 8 -23 -12 -24 -12 -11 3 13 16 8 22 -14
17 -5 -1 -7 2 -3 6 4 4 2 14 -5 22 -8 11 -8 14 0 9 6 -4 14 -3 17 2 3 5 -1 12
-10 15 -14 5 -14 9 -3 22 10 13 10 17 -1 24 -8 5 -19 6 -25 3 -5 -4 -7 -3 -3
2 4 4 3 17 -3 29 -9 19 -9 19 4 4 20 -25 27 -22 14 6 -7 13 -16 22 -22 18 -5
-3 -4 2 4 11 7 9 10 17 5 17 -5 0 -9 13 -9 29 -1 16 3 27 7 25 4 -3 5 3 1 12
-5 13 -3 15 8 9 11 -7 11 -5 -1 10 -11 14 -12 19 -2 22 6 3 12 9 12 14 0 6 -5
7 -12 3 -7 -4 -8 -3 -4 5 4 6 12 8 18 5 8 -5 9 -1 5 10 -4 9 -3 15 2 11 5 -3
17 3 27 12 10 10 20 17 23 17 3 -1 5 3 3 10 -2 6 0 7 5 3 4 -5 8 -13 8 -18 0
-5 5 -9 10 -9 6 1 9 11 7 23 -2 19 -1 20 8 5 8 -12 22 -16 55 -14 25 2 45 -1
45 -7 0 -5 8 -3 17 4 11 10 14 10 9 2 -4 -8 -1 -13 9 -13 10 0 13 5 9 13 -4 6
8 -3 26 -20 25 -26 36 -31 50 -23 13 7 21 6 26 -2 5 -7 3 -8 -6 -3 -8 5 -11 4
-7 -3 4 -5 17 -8 29 -4 17 4 20 2 15 -11 -4 -12 -2 -14 10 -10 11 4 14 2 9 -5
-10 -16 6 -15 23 1 11 10 13 10 7 0 -4 -8 -1 -13 8 -13 9 0 16 -7 16 -16 0 -8
5 -12 10 -9 6 3 10 1 10 -6 0 -7 3 -10 6 -6 4 3 12 1 20 -6 33 -30 44 -37 54
-37 6 0 8 -5 4 -12 -5 -7 -2 -9 8 -6 8 4 22 -2 31 -13 9 -10 13 -19 7 -19 -5
0 -14 8 -19 18 -6 9 -11 12 -11 7 0 -17 22 -35 42 -35 15 0 23 -16 19 -42 0
-4 9 -5 20 -3 15 3 19 0 15 -10 -5 -13 5 -19 26 -16 4 0 4 -7 1 -16 -4 -11 -3
-14 5 -9 8 5 10 1 5 -10 -5 -13 -3 -15 7 -9 9 5 11 4 6 -4 -4 -6 1 -19 11 -29
11 -9 13 -13 6 -8 -18 12 -16 1 3 -18 11 -11 12 -16 3 -16 -7 0 -5 -7 7 -16
10 -8 13 -13 7 -9 -9 4 -11 1 -7 -9 3 -9 11 -13 16 -10 6 4 2 -6 -8 -22 -11
-15 -14 -25 -7 -21 7 5 16 0 22 -12 14 -26 14 -31 -3 -31 -10 0 -13 -8 -10
-27 3 -15 7 -30 10 -34 2 -4 -1 -11 -7 -15 -7 -4 -9 -3 -6 2 3 6 1 16 -4 24
-7 12 -8 11 -6 -5 1 -11 6 -25 10 -32 4 -6 2 -15 -4 -19 -8 -4 -9 -3 -5 4 10
17 1 15 -13 -2 -9 -11 -9 -16 0 -22 8 -5 9 -3 4 6 -6 9 -4 11 5 5 10 -6 7 -12
-11 -26 -23 -17 -23 -19 -4 -20 16 0 15 -3 -7 -10 -17 -7 -25 -15 -21 -25 4
-10 0 -12 -13 -7 -17 6 -17 5 -5 -11 12 -15 12 -17 0 -14 -9 2 -14 -5 -13 -22
2 -23 1 -24 -13 -5 -13 16 -15 17 -10 3 3 -10 2 -20 -3 -23 -6 -4 -10 -1 -10
6 0 7 -3 10 -6 7 -3 -4 0 -17 7 -30 l12 -23 -24 20 c-13 11 -18 13 -11 5 17
-19 15 -35 -2 -21 -10 9 -16 9 -21 1 -4 -6 -4 -14 -1 -17 3 -4 6 -1 6 6 0 7 5
9 10 6 8 -5 7 -12 -2 -23 -11 -15 -11 -15 3 -5 9 7 20 9 24 5 5 -4 4 -1 0 7
-6 11 -4 13 9 8 10 -4 15 -3 11 3 -3 6 -2 10 4 10 6 0 8 8 4 18 -6 15 -3 14
18 -3 22 -19 23 -19 9 -1 -13 18 -13 19 1 14 18 -7 62 35 51 48 -4 4 2 4 12 0
16 -6 17 -4 6 9 -11 14 -10 17 8 22 12 3 22 12 22 19 0 8 8 14 18 15 12 0 13
2 3 6 -10 4 -8 9 10 20 15 9 17 12 5 8 -16 -5 -17 -3 -6 10 7 8 16 12 21 9 12
-7 11 3 -3 29 -10 20 -10 21 6 8 14 -12 16 -12 10 3 -3 9 -1 16 5 16 6 0 11 5
11 11 0 5 -4 7 -10 4 -15 -9 -12 8 7 34 9 14 11 21 5 17 -7 -4 -10 1 -9 14 1
12 7 18 14 16 7 -3 10 1 6 9 -3 8 -8 13 -12 11 -3 -2 -6 13 -7 35 -1 23 3 36
9 32 6 -3 7 -1 3 5 -4 7 -15 12 -24 13 -11 0 -12 3 -4 6 6 2 12 11 12 19 0 10
-5 12 -12 8 -8 -5 -7 0 2 11 13 17 13 18 -1 13 -13 -5 -15 -1 -11 19 3 17 1
24 -6 19 -6 -4 -9 3 -7 19 1 14 -2 25 -7 25 -5 0 -7 4 -3 9 3 5 -4 16 -15 24
-11 7 -17 17 -13 20 3 4 -1 7 -9 7 -18 0 -31 26 -21 43 3 7 3 9 -2 5 -10 -9
-38 19 -30 31 3 5 0 13 -6 17 -8 4 -9 3 -5 -4 4 -7 2 -12 -3 -12 -6 0 -11 7
-11 16 0 8 -3 13 -7 11 -5 -3 -14 2 -22 10 -12 13 -11 14 10 9 15 -4 10 1 -11
12 -21 10 -34 25 -34 35 1 9 -2 14 -7 11 -5 -3 -9 -1 -9 5 0 5 -9 8 -21 6 -18
-4 -19 -2 -7 12 9 12 9 15 1 9 -8 -4 -13 -2 -13 6 0 11 -2 10 -9 0 -7 -11 -9
-11 -14 1 -3 8 0 20 6 27 10 10 8 11 -8 2 -15 -8 -22 -6 -33 6 -7 10 -11 11
-7 5 3 -7 1 -13 -4 -13 -6 0 -11 9 -11 19 0 11 -4 23 -10 26 -6 4 -7 -1 -4
-12 5 -17 5 -17 -9 0 -16 19 -32 24 -21 5 5 -7 3 -8 -5 -4 -7 5 -10 15 -6 23
5 14 3 14 -12 2 -14 -12 -16 -12 -8 0 6 11 4 13 -10 7 -16 -6 -16 -4 -4 10 13
16 12 16 -6 7 -22 -11 -45 -7 -45 9 0 6 8 5 18 -3 15 -13 16 -12 3 4 -10 13
-17 15 -27 6 -11 -9 -14 -8 -14 4 0 11 -8 15 -27 13 -36 -4 -79 14 -61 26 17
11 -22 6 -39 -5 -7 -5 -13 -4 -13 1 0 6 -7 12 -14 15 -10 4 -13 1 -10 -7 5
-14 -30 -15 -43 -1 -5 4 -3 5 4 1 6 -3 15 -1 19 6 4 7 4 10 -1 6 -4 -4 -13 -4
-20 2 -7 6 -17 4 -29 -8z m205 -219 c13 -16 12 -17 -3 -4 -10 7 -18 15 -18 17
0 8 8 3 21 -13z m-326 -62 c3 -5 2 -12 -3 -15 -5 -3 -9 1 -9 9 0 17 3 19 12 6z
m819 -172 c-3 -5 -10 -7 -15 -3 -5 3 -7 10 -3 15 3 5 10 7 15 3 5 -3 7 -10 3
-15z m-17 -314 c0 -8 -4 -12 -9 -9 -5 3 -6 10 -3 15 9 13 12 11 12 -6z m-582
-115 c3 -6 -1 -7 -9 -4 -18 7 -21 14 -7 14 6 0 13 -4 16 -10z m-215 -45 c7 -9
8 -15 2 -15 -5 0 -12 7 -16 15 -3 8 -4 15 -2 15 2 0 9 -7 16 -15z m290 -80 c7
-9 8 -15 2 -15 -5 0 -12 7 -16 15 -3 8 -4 15 -2 15 2 0 9 -7 16 -15z m84 -583
c2 -4 -4 -8 -14 -8 -10 0 -16 4 -14 8 3 4 9 8 14 8 5 0 11 -4 14 -8z m-29
-150 c-3 -3 -11 0 -18 7 -9 10 -8 11 6 5 10 -3 15 -9 12 -12z m150 -21 c3 -5
2 -12 -3 -15 -5 -3 -9 1 -9 9 0 17 3 19 12 6z"/>
<path d="M686 2114 c-11 -7 -18 -16 -15 -18 2 -2 13 2 23 10 11 7 18 16 15 18
-2 2 -13 -2 -23 -10z"/>
<path d="M2296 2121 c-3 -4 1 -17 10 -27 14 -18 15 -18 5 2 -6 12 -7 24 -4 28
3 3 4 6 0 6 -3 0 -8 -4 -11 -9z"/>
<path d="M2285 1960 c3 -5 8 -10 11 -10 2 0 4 5 4 10 0 6 -5 10 -11 10 -5 0
-7 -4 -4 -10z"/>
<path d="M895 1460 c3 -5 8 -10 11 -10 2 0 4 5 4 10 0 6 -5 10 -11 10 -5 0 -7
-4 -4 -10z"/>
<path d="M1043 835 c0 -8 4 -12 9 -9 5 3 6 10 3 15 -9 13 -12 11 -12 -6z"/>
<path d="M1066 807 c3 -10 9 -15 12 -12 3 3 0 11 -7 18 -10 9 -11 8 -5 -6z"/>
<path d="M855 611 c-6 -11 13 -26 22 -17 4 3 1 6 -6 6 -7 0 -9 5 -6 10 3 6 4
10 1 10 -3 0 -7 -4 -11 -9z"/>
<path d="M1035 300 c-3 -5 -2 -10 4 -10 5 0 13 5 16 10 3 6 2 10 -4 10 -5 0
-13 -4 -16 -10z"/>
<path d="M840 186 c0 -2 7 -9 15 -16 13 -11 14 -10 9 4 -5 14 -24 23 -24 12z"/>
</g>
</svg>
